<?xml version="1.0" standalone="no"?>
<!DOCTYPE svg PUBLIC "-//W3C//DTD SVG 20010904//EN"
 "http://www.w3.org/TR/2001/REC-SVG-20010904/DTD/svg10.dtd">
<svg version="1.0" xmlns="http://www.w3.org/2000/svg"
 width="100.000000pt" height="100.000000pt" viewBox="0 0 100.000000 100.000000"
 preserveAspectRatio="xMidYMid meet">

<g transform="translate(0.000000,100.000000) scale(0.100000,-0.100000)"
fill="#000000" stroke="none">
<path d="M436 914 c-3 -9 -6 -21 -5 -27 0 -7 5 -1 10 13 l10 24 34 -37 c19
-20 38 -37 43 -37 5 0 -8 18 -30 40 -45 44 -53 47 -62 24z"/>
<path d="M420 862 c0 -6 -28 -25 -63 -41 -35 -16 -69 -37 -76 -45 -18 -21 -7
-86 23 -152 23 -49 23 -51 5 -73 -11 -13 -19 -28 -19 -35 1 -6 8 1 16 17 18
34 22 34 52 0 21 -25 22 -25 8 -3 -68 103 -102 224 -71 250 24 20 45 4 73 -54
13 -26 25 -46 28 -44 2 3 -3 19 -12 37 -18 37 -10 56 12 27 8 -11 14 -15 14
-8 0 6 -16 23 -36 39 l-36 27 40 17 c40 17 59 35 48 46 -3 4 -6 1 -6 -5z"/>
<path d="M578 863 c27 -5 28 -13 2 -46 -13 -17 -20 -38 -18 -59 3 -47 -8 -60
-43 -53 -23 5 -36 1 -62 -21 l-32 -27 -5 34 -6 34 -6 -29 c-8 -37 12 -68 66
-105 84 -58 81 -59 81 28 1 84 20 135 56 146 36 12 56 -18 61 -95 7 -91 39
-147 116 -198 59 -41 142 -86 142 -78 0 3 -28 20 -62 38 -35 18 -86 56 -115
83 -55 54 -73 96 -73 176 0 32 -6 52 -20 67 -25 26 -38 27 -68 6 -20 -14 -22
-14 -22 2 0 9 9 32 21 50 23 38 18 55 -14 53 -22 -2 -22 -2 1 -6z m-33 -176
c1 -1 -1 -30 -4 -65 l-6 -64 -40 30 c-68 49 -71 57 -38 87 21 19 35 24 57 20
16 -3 30 -6 31 -8z"/>
<path d="M291 473 c-1 -12 -5 -25 -11 -28 -5 -3 -10 -12 -9 -18 0 -9 2 -9 6 1
7 19 24 14 57 -15 l31 -28 -27 30 c-15 17 -31 41 -37 55 -9 24 -10 24 -10 3z"/>
<path d="M270 382 c0 -18 76 -98 144 -150 63 -48 203 -132 221 -132 5 0 -17
15 -50 33 -129 70 -260 172 -296 231 -11 17 -19 25 -19 18z"/>
</g>
</svg>
